<?xml version="1.0" encoding="UTF-8"?>
<svg xmlns="http://www.w3.org/2000/svg" xmlns:xlink="http://www.w3.org/1999/xlink" width="32px" height="32px" viewBox="0 0 32 32" version="1.1">
<g id="surface1">
<path style="fill-rule:nonzero;fill:rgb(0%,0%,0%);fill-opacity:1;stroke-width:6.4;stroke-linecap:butt;stroke-linejoin:miter;stroke:rgb(0%,0%,0%);stroke-opacity:1;stroke-miterlimit:4;" d="M 232.6875 96 C 232.6875 92.8125 231.4375 89.75 229.15625 87.5 L 168.5 26.8125 C 163.78125 22.15625 156.21875 22.15625 151.5 26.8125 L 151.5 26.84375 L 91.0625 87.28125 C 83 84.25 58.28125 77.8125 32.09375 98.9375 C 29.4375 101.0625 27.8125 104.25 27.625 107.65625 C 27.4375 111.0625 28.71875 114.375 31.125 116.78125 L 82.34375 168 L 45.1875 205.15625 C 44.15625 206.1875 43.75 207.65625 44.125 209.03125 C 44.5 210.40625 45.59375 211.5 46.96875 211.875 C 48.34375 212.25 49.8125 211.84375 50.84375 210.84375 L 88 173.65625 L 139.03125 224.6875 C 141.28125 226.9375 144.3125 228.1875 147.5 228.1875 C 147.78125 228.1875 148.0625 228.1875 148.34375 228.15625 C 151.8125 227.9375 155 226.1875 157.09375 223.4375 C 176.90625 197.0625 173.59375 176.25 168.78125 164.875 L 229.15625 104.5 C 231.4375 102.25 232.6875 99.1875 232.6875 96 Z M 223.5 98.84375 L 161.1875 161.15625 C 159.96875 162.375 159.65625 164.25 160.4375 165.78125 C 170.84375 186.65625 158.8125 207.84375 150.6875 218.625 C 150 219.53125 148.9375 220.125 147.78125 220.1875 C 146.625 220.28125 145.5 219.84375 144.6875 219.03125 L 36.78125 111.125 C 35.96875 110.3125 35.5625 109.21875 35.625 108.0625 C 35.6875 106.9375 36.21875 105.875 37.125 105.15625 C 50.0625 94.71875 62.46875 91.9375 72.0625 91.9375 C 78.28125 91.84375 84.46875 93.09375 90.21875 95.5625 C 91.75 96.34375 93.625 96.03125 94.8125 94.84375 L 157.15625 32.5 C 158.75 30.9375 161.25 30.9375 162.84375 32.5 L 223.5 93.15625 C 225.0625 94.71875 225.0625 97.28125 223.5 98.84375 Z M 223.5 98.84375 " transform="matrix(0.125,0,0,0.125,0,0)"/>
</g>
</svg>
