<?xml version="1.0" encoding="iso-8859-1"?>
<!-- Uploaded to: SVG Repo, www.svgrepo.com, Generator: SVG Repo Mixer Tools -->
<svg fill="#000000" height="800px" width="800px" version="1.1" id="Layer_1" xmlns="http://www.w3.org/2000/svg" xmlns:xlink="http://www.w3.org/1999/xlink" 
	 viewBox="0 0 512 512" xml:space="preserve">
<g>
	<g>
		<g>
			<path d="M326.613,142.165C322.219,137.088,320,134.549,320,128c0-6.421,2.176-8.896,6.485-13.781
				c6.272-7.125,14.848-16.896,14.848-39.552c0-5.888-4.779-10.667-10.667-10.667S320,68.779,320,74.667
				c0,14.613-4.203,19.392-9.536,25.451c-5.248,5.973-11.797,13.397-11.797,27.883s6.549,22.037,11.819,28.117
				c5.312,6.144,9.515,11.008,9.515,25.216c0,5.888,4.779,10.667,10.667,10.667s10.667-4.779,10.667-10.667
				C341.333,159.168,332.821,149.333,326.613,142.165z"/>
			<path d="M309.333,213.312h-25.003c-4.309,0-8.213,2.603-9.856,6.592c-1.664,3.989-0.747,8.576,2.304,11.627l25.003,25.003
				c2.048,2.048,4.779,3.115,7.552,3.115c1.365,0,2.752-0.256,4.075-0.811c3.989-1.643,6.592-5.547,6.592-9.856v-25.003
				C320,218.091,315.221,213.312,309.333,213.312z"/>
			<path d="M42.667,224v64c0,5.888,4.779,10.667,10.667,10.667h53.333v-85.333H53.333C47.445,213.333,42.667,218.112,42.667,224z"/>
			<path d="M256,0C187.605,0,123.328,26.624,74.987,74.987C26.645,123.349,0,187.605,0,256c0,141.163,114.837,256,256,256
				c68.395,0,132.672-26.624,181.013-74.987C485.355,388.651,512,324.395,512,256C512,114.837,397.163,0,256,0z M256,490.667
				c-129.387,0-234.667-105.28-234.667-234.667c0-59.115,21.717-114.901,61.355-158.229l115.563,115.563H128v85.333h155.584
				l130.645,130.645C370.901,468.949,315.115,490.667,256,490.667z M429.312,414.229L97.749,82.667
				C141.099,43.051,196.885,21.333,256,21.333c129.387,0,234.667,105.28,234.667,234.667
				C490.667,315.115,468.949,370.901,429.312,414.229z"/>
			<path d="M437.333,213.333c-5.888,0-10.667,4.779-10.667,10.667v64c0,5.888,4.779,10.667,10.667,10.667
				c5.888,0,10.667-4.779,10.667-10.667v-64C448,218.112,443.221,213.333,437.333,213.333z"/>
			<path d="M394.667,213.333c-5.888,0-10.667,4.779-10.667,10.667v64c0,5.888,4.779,10.667,10.667,10.667
				s10.667-4.779,10.667-10.667v-64C405.333,218.112,400.555,213.333,394.667,213.333z"/>
			<path d="M352,213.333c-5.888,0-10.667,4.779-10.667,10.667v64c0,5.888,4.779,10.667,10.667,10.667
				c5.888,0,10.667-4.779,10.667-10.667v-64C362.667,218.112,357.888,213.333,352,213.333z"/>
		</g>
	</g>
</g>
</svg>