<?xml version="1.0" encoding="UTF-8"?>
<svg xmlns="http://www.w3.org/2000/svg" xmlns:xlink="http://www.w3.org/1999/xlink" width="25px" height="25px" viewBox="0 0 25 25" version="1.1">
<g id="surface1">
<path style=" stroke:none;fill-rule:nonzero;fill:rgb(0%,0%,0%);fill-opacity:1;" d="M 12.425781 3.511719 C 12.425781 3.742188 12.238281 3.929688 12.007812 3.929688 C 11.777344 3.929688 11.589844 3.742188 11.589844 3.511719 C 11.589844 3.28125 11.777344 3.09375 12.007812 3.09375 C 12.238281 3.09375 12.425781 3.28125 12.425781 3.511719 Z M 12.425781 3.511719 "/>
<path style="fill:none;stroke-width:2;stroke-linecap:round;stroke-linejoin:round;stroke:rgb(0%,0%,0%);stroke-opacity:1;stroke-miterlimit:4;" d="M 10 34.5 C 10 35.88 8.88 37 7.5 37 C 6.12 37 5 35.88 5 34.5 C 5 33.12 6.12 32 7.5 32 C 8.88 32 10 33.12 10 34.5 Z M 10 34.5 " transform="matrix(0.390625,0,0,0.390625,0,0)"/>
<path style="fill:none;stroke-width:2;stroke-linecap:round;stroke-linejoin:round;stroke:rgb(0%,0%,0%);stroke-opacity:1;stroke-miterlimit:4;" d="M 42 7 L 42 9 " transform="matrix(0.390625,0,0,0.390625,0,0)"/>
<path style="fill:none;stroke-width:2;stroke-linecap:round;stroke-linejoin:round;stroke:rgb(0%,0%,0%);stroke-opacity:1;stroke-miterlimit:4;" d="M 42 13 L 42 15 " transform="matrix(0.390625,0,0,0.390625,0,0)"/>
<path style="fill:none;stroke-width:2;stroke-linecap:round;stroke-linejoin:round;stroke:rgb(0%,0%,0%);stroke-opacity:1;stroke-miterlimit:4;" d="M 38 11 L 40 11 " transform="matrix(0.390625,0,0,0.390625,0,0)"/>
<path style="fill:none;stroke-width:2;stroke-linecap:round;stroke-linejoin:round;stroke:rgb(0%,0%,0%);stroke-opacity:1;stroke-miterlimit:4;" d="M 44 11 L 46 11 " transform="matrix(0.390625,0,0,0.390625,0,0)"/>
<path style="fill:none;stroke-width:2;stroke-linecap:butt;stroke-linejoin:round;stroke:rgb(0%,0%,0%);stroke-opacity:1;stroke-miterlimit:4;" d="M 46 58 L 61 58 " transform="matrix(0.390625,0,0,0.390625,0,0)"/>
<path style="fill:none;stroke-width:2;stroke-linecap:butt;stroke-linejoin:round;stroke:rgb(0%,0%,0%);stroke-opacity:1;stroke-miterlimit:4;" d="M 62.03 41 L 44.97 41 " transform="matrix(0.390625,0,0,0.390625,0,0)"/>
<path style="fill:none;stroke-width:2;stroke-linecap:butt;stroke-linejoin:round;stroke:rgb(0%,0%,0%);stroke-opacity:1;stroke-miterlimit:4;" d="M 38.03 41 L 20.97 41 " transform="matrix(0.390625,0,0,0.390625,0,0)"/>
<path style=" stroke:none;fill-rule:nonzero;fill:rgb(0%,0%,0%);fill-opacity:1;" d="M 22.191406 17.964844 C 22.191406 18.195312 22.003906 18.382812 21.773438 18.382812 C 21.542969 18.382812 21.355469 18.195312 21.355469 17.964844 C 21.355469 17.734375 21.542969 17.546875 21.773438 17.546875 C 22.003906 17.546875 22.191406 17.734375 22.191406 17.964844 Z M 22.191406 17.964844 "/>
<path style=" stroke:none;fill-rule:nonzero;fill:rgb(0%,0%,0%);fill-opacity:1;" d="M 20.238281 18.746094 C 20.238281 18.976562 20.050781 19.164062 19.820312 19.164062 C 19.589844 19.164062 19.402344 18.976562 19.402344 18.746094 C 19.402344 18.515625 19.589844 18.328125 19.820312 18.328125 C 20.050781 18.328125 20.238281 18.515625 20.238281 18.746094 Z M 20.238281 18.746094 "/>
<path style=" stroke:none;fill-rule:nonzero;fill:rgb(0%,0%,0%);fill-opacity:1;" d="M 22.582031 20.699219 C 22.582031 20.929688 22.394531 21.117188 22.164062 21.117188 C 21.933594 21.117188 21.746094 20.929688 21.746094 20.699219 C 21.746094 20.46875 21.933594 20.28125 22.164062 20.28125 C 22.394531 20.28125 22.582031 20.46875 22.582031 20.699219 Z M 22.582031 20.699219 "/>
<path style="fill:none;stroke-width:2;stroke-linecap:butt;stroke-linejoin:round;stroke:rgb(0%,0%,0%);stroke-opacity:1;stroke-miterlimit:4;" d="M 44 25 L 55 25 L 55 31 C 55 32.1 55.9 33 57 33 C 58.1 33 59 32.1 59 31 L 59 25 L 63 25 " transform="matrix(0.390625,0,0,0.390625,0,0)"/>
<path style="fill:none;stroke-width:2;stroke-linecap:round;stroke-linejoin:round;stroke:rgb(0%,0%,0%);stroke-opacity:1;stroke-miterlimit:4;" d="M 63 24.62 C 63 23.17 61.83 22 60.38 22 L 56.82 22 C 56.93 21.68 57 21.34 57 21 C 57 19.34 55.66 18 54 18 C 52.34 18 51 19.34 51 21 C 51 21.34 51.07 21.68 51.18 22 L 51 22 C 51 20.9 50.1 20 49 20 C 47.9 20 47 20.9 47 22 L 46.62 22 C 45.17 22 44 23.17 44 24.62 L 44 25 L 46 58 L 45 62 L 62 62 L 61 58 L 63 25 Z M 63 24.62 " transform="matrix(0.390625,0,0,0.390625,0,0)"/>
<path style="fill:none;stroke-width:2;stroke-linecap:butt;stroke-linejoin:round;stroke:rgb(0%,0%,0%);stroke-opacity:1;stroke-miterlimit:4;" d="M 22 58 L 37 58 " transform="matrix(0.390625,0,0,0.390625,0,0)"/>
<path style=" stroke:none;fill-rule:nonzero;fill:rgb(0%,0%,0%);fill-opacity:1;" d="M 12.816406 17.964844 C 12.816406 18.195312 12.628906 18.382812 12.398438 18.382812 C 12.167969 18.382812 11.980469 18.195312 11.980469 17.964844 C 11.980469 17.734375 12.167969 17.546875 12.398438 17.546875 C 12.628906 17.546875 12.816406 17.734375 12.816406 17.964844 Z M 12.816406 17.964844 "/>
<path style=" stroke:none;fill-rule:nonzero;fill:rgb(0%,0%,0%);fill-opacity:1;" d="M 10.863281 18.746094 C 10.863281 18.976562 10.675781 19.164062 10.445312 19.164062 C 10.214844 19.164062 10.027344 18.976562 10.027344 18.746094 C 10.027344 18.515625 10.214844 18.328125 10.445312 18.328125 C 10.675781 18.328125 10.863281 18.515625 10.863281 18.746094 Z M 10.863281 18.746094 "/>
<path style=" stroke:none;fill-rule:nonzero;fill:rgb(0%,0%,0%);fill-opacity:1;" d="M 13.207031 20.699219 C 13.207031 20.929688 13.019531 21.117188 12.789062 21.117188 C 12.558594 21.117188 12.371094 20.929688 12.371094 20.699219 C 12.371094 20.46875 12.558594 20.28125 12.789062 20.28125 C 13.019531 20.28125 13.207031 20.46875 13.207031 20.699219 Z M 13.207031 20.699219 "/>
<path style="fill:none;stroke-width:2;stroke-linecap:butt;stroke-linejoin:round;stroke:rgb(0%,0%,0%);stroke-opacity:1;stroke-miterlimit:4;" d="M 20 25 L 26 25 L 26 29 C 26 30.1 26.9 31 28 31 C 29.1 31 30 30.1 30 29 L 30 25 L 39 25 " transform="matrix(0.390625,0,0,0.390625,0,0)"/>
<path style="fill:none;stroke-width:2;stroke-linecap:round;stroke-linejoin:round;stroke:rgb(0%,0%,0%);stroke-opacity:1;stroke-miterlimit:4;" d="M 39 24.62 C 39 23.17 37.83 22 36.38 22 L 32.82 22 C 32.93 21.68 33 21.34 33 21 C 33 19.34 31.66 18 30 18 C 28.34 18 27 19.34 27 21 C 27 21.34 27.07 21.68 27.18 22 L 27 22 C 27 20.9 26.1 20 25 20 C 23.9 20 23 20.9 23 22 L 22.62 22 C 21.17 22 20 23.17 20 24.62 L 20 25 L 22 58 L 21 62 L 38 62 L 37 58 L 39 25 Z M 39 24.62 " transform="matrix(0.390625,0,0,0.390625,0,0)"/>
<path style="fill:none;stroke-width:2;stroke-linecap:round;stroke-linejoin:round;stroke:rgb(0%,0%,0%);stroke-opacity:1;stroke-miterlimit:4;" d="M 22 11.5 C 22 17.3 17.3 22 11.5 22 C 5.7 22 1 17.3 1 11.5 C 1 5.7 5.7 1 11.5 1 C 17.3 1 22 5.7 22 11.5 Z M 22 11.5 " transform="matrix(0.390625,0,0,0.390625,0,0)"/>
<path style="fill:none;stroke-width:2;stroke-linecap:round;stroke-linejoin:round;stroke:rgb(0%,0%,0%);stroke-opacity:1;stroke-miterlimit:4;" d="M 11.41 17.7 C 11.41 17.7 17.31 11.45 17.31 9.76 C 17.25 8.02 15.78 6.65 14.03 6.71 C 13.01 6.7 12.05 7.16 11.41 7.95 C 10.77 7.16 9.8 6.7 8.78 6.71 C 7.03 6.65 5.57 8.01 5.5 9.76 C 5.5 11.45 11.41 17.7 11.41 17.7 Z M 11.41 17.7 " transform="matrix(0.390625,0,0,0.390625,0,0)"/>
</g>
</svg>
