<?xml version="1.0" encoding="UTF-8"?>
<svg xmlns="http://www.w3.org/2000/svg" xmlns:xlink="http://www.w3.org/1999/xlink" width="64px" height="64px" viewBox="0 0 64 64" version="1.1">
<g id="surface1">
<path style="fill:none;stroke-width:10;stroke-linecap:butt;stroke-linejoin:miter;stroke:rgb(0%,0%,0%);stroke-opacity:1;stroke-miterlimit:4;" d="M 250.125 128 C 250.129716 60.390625 195.451116 5.578125 127.997991 5.578125 C 60.544866 5.578125 5.879716 60.390625 5.875 128 C 5.870284 195.609375 60.548884 250.421875 128.002009 250.421875 C 195.455134 250.421875 250.120284 195.609375 250.125 128 Z M 250.125 128 " transform="matrix(0.25,0,-0.000387,0.25,0.049536,0)"/>
<path style="fill-rule:nonzero;fill:rgb(0%,0%,0%);fill-opacity:1;stroke-width:6.4;stroke-linecap:butt;stroke-linejoin:miter;stroke:rgb(0%,0%,0%);stroke-opacity:1;stroke-miterlimit:4;" d="M 188 110.28125 C 188 108.390625 187.265625 106.5625 185.9375 105.234375 L 150.4375 69.09375 C 147.6875 66.296875 143.25 66.296875 140.5 69.09375 L 105.140625 105.078125 C 100.40625 103.28125 85.9375 99.453125 70.625 112.03125 C 67.359375 114.703125 67.109375 119.640625 70.0625 122.65625 L 100.03125 153.15625 L 78.28125 175.296875 C 77 176.578125 77.578125 178.796875 79.3125 179.28125 C 80.125 179.5 81 179.265625 81.578125 178.65625 L 103.34375 156.515625 L 133.1875 186.90625 C 134.515625 188.25 136.296875 189 138.15625 189 C 138.328125 189 138.484375 189 138.65625 188.984375 C 140.671875 188.84375 142.546875 187.8125 143.765625 186.15625 C 155.359375 170.46875 153.421875 158.0625 150.609375 151.28125 L 185.9375 115.328125 C 187.265625 114 188 112.171875 188 110.28125 Z M 182.640625 111.96875 L 146.15625 149.09375 C 145.4375 149.8125 145.265625 150.921875 145.71875 151.84375 C 151.8125 164.25 144.765625 176.875 140.015625 183.296875 C 139.15625 184.453125 137.5 184.5625 136.5 183.53125 L 73.359375 119.28125 C 72.375 118.28125 72.46875 116.625 73.5625 115.734375 C 81.125 109.515625 88.40625 107.859375 94 107.859375 C 97.65625 107.8125 101.28125 108.546875 104.625 110.03125 C 105.53125 110.484375 106.625 110.3125 107.328125 109.578125 L 143.8125 72.453125 C 144.734375 71.53125 146.203125 71.53125 147.125 72.453125 L 182.640625 108.59375 C 183.546875 109.53125 183.546875 111.03125 182.640625 111.96875 Z M 182.640625 111.96875 " transform="matrix(0.25,0,0,0.25,0,0)"/>
</g>
</svg>
