<!DOCTYPE svg PUBLIC "-//W3C//DTD SVG 1.1//EN" "http://www.w3.org/Graphics/SVG/1.1/DTD/svg11.dtd">
<!-- Uploaded to: SVG Repo, www.svgrepo.com, Transformed by: SVG Repo Mixer Tools -->
<svg fill="#000000" height="120px" width="120px" version="1.1" id="Layer_1" xmlns="http://www.w3.org/2000/svg" xmlns:xlink="http://www.w3.org/1999/xlink" viewBox="0 0 512.00 512.00" xml:space="preserve" stroke="#000000" stroke-width="5.12001">
<g id="SVGRepo_bgCarrier" stroke-width="0"/>
<g id="SVGRepo_tracerCarrier" stroke-linecap="round" stroke-linejoin="round"/>
<g id="SVGRepo_iconCarrier"> <g> <g> <g> <path d="M95.696,253.407c-4.782,0.178-8.516,4.2-8.337,8.983c1.629,43.725,19.895,84.577,51.432,115.027 c31.619,30.53,73.244,47.343,117.208,47.343c93.055,0,168.76-75.705,168.76-168.76S349.055,87.24,256,87.24 c-40.2,0-79.139,14.372-109.646,40.469c-30.169,25.807-50.35,61.473-56.824,100.429c-0.785,4.721,2.407,9.185,7.128,9.969 c4.717,0.789,9.185-2.406,9.969-7.128C118.801,157.734,181.622,104.572,256,104.572c83.498,0,151.428,67.93,151.428,151.428 S339.498,407.428,256,407.428c-81.81,0-148.278-63.992-151.321-145.684C104.501,256.961,100.49,253.211,95.696,253.407z"/> <path d="M504.61,300.318l-14.743-11.054c-10.57-7.927-16.633-20.051-16.633-33.264c0-13.213,6.063-25.337,16.634-33.264 l14.741-11.054c2.965-2.223,4.187-6.087,3.042-9.611l-16.363-50.358c-1.145-3.525-4.406-5.931-8.111-5.988l-18.424-0.279 c-7.812-0.119-15.357-2.38-21.82-6.541c-4.024-2.592-9.386-1.428-11.978,2.595c-2.591,4.023-1.429,9.386,2.595,11.978 c9.187,5.915,19.886,9.13,30.94,9.297l12.228,0.185l12.533,38.572l-9.785,7.336c-14.977,11.231-23.568,28.409-23.568,47.13 c0,18.721,8.59,35.899,23.567,47.13l9.785,7.337l-12.533,38.572l-12.228,0.185c-18.719,0.282-35.765,9.131-46.769,24.275 c-11.004,15.146-14.152,34.092-8.636,51.982l3.604,11.686l-32.812,23.839l-10.001-7.038c-15.31-10.775-34.302-13.635-52.107-7.85 c-17.805,5.785-31.487,19.263-37.54,36.979l-3.954,11.573H235.72l-3.954-11.572c-6.052-17.716-19.735-31.194-37.54-36.978 c-17.806-5.784-36.797-2.923-52.106,7.851l-10.001,7.038L99.307,437.17l3.603-11.686c5.516-17.89,2.369-36.836-8.636-51.982 c-11.004-15.145-28.05-23.994-46.769-24.276l-12.228-0.185l-12.533-38.572l9.785-7.337c14.977-11.231,23.567-28.41,23.567-47.13 s-8.59-35.899-23.567-47.13l-9.785-7.337l12.533-38.572l12.228-0.185c18.719-0.282,35.765-9.13,46.769-24.276 c11.004-15.145,14.151-34.092,8.635-51.981l-3.603-11.686l32.811-23.839l10.001,7.037c15.31,10.775,34.3,13.638,52.107,7.85 c17.805-5.784,31.488-19.263,37.54-36.979l3.958-11.57h40.557l3.954,11.572c6.052,17.716,19.735,31.194,37.54,36.979 c17.803,5.784,36.796,2.922,52.106-7.851l10.001-7.038l32.812,23.839l-3.603,11.686c-3.808,12.352-3.517,25.252,0.842,37.302 c1.628,4.501,6.595,6.83,11.097,5.201c4.501-1.628,6.83-6.597,5.201-11.097c-3.068-8.481-3.269-17.575-0.578-26.3l5.428-17.608 c1.092-3.542-0.19-7.386-3.188-9.564l-42.838-31.124c-2.997-2.177-7.05-2.208-10.081-0.075l-15.068,10.604 c-10.805,7.605-24.209,9.624-36.775,5.54c-12.566-4.083-22.223-13.595-26.495-26.099l-5.958-17.436 C289.478,2.357,286.182,0,282.476,0h-52.951c-3.706,0-7.002,2.357-8.2,5.864L215.367,23.3 c-4.272,12.503-13.929,22.015-26.495,26.099c-12.567,4.083-25.971,2.064-36.776-5.54l-15.068-10.604 c-3.031-2.133-7.083-2.103-10.081,0.076L84.108,64.453c-2.998,2.178-4.28,6.022-3.188,9.564l5.428,17.609 c3.893,12.626,1.672,25.998-6.094,36.687c-7.767,10.689-19.798,16.933-33.008,17.133l-18.424,0.278 c-3.706,0.055-6.965,2.462-8.111,5.988L4.348,202.071c-1.145,3.525,0.077,7.388,3.042,9.611l14.743,11.054 c10.57,7.927,16.633,20.051,16.633,33.264c0,13.213-6.063,25.337-16.633,33.264L7.392,300.318 c-2.965,2.223-4.189,6.087-3.042,9.611l16.363,50.359c1.145,3.524,4.406,5.931,8.111,5.986l18.424,0.279 c13.212,0.2,25.242,6.445,33.008,17.134c7.766,10.689,9.988,24.061,6.095,36.687l-5.428,17.608 c-1.092,3.542,0.189,7.386,3.188,9.564l42.838,31.124c2.998,2.179,7.051,2.209,10.081,0.076l15.068-10.604 c10.806-7.604,24.212-9.623,36.775-5.54c12.567,4.083,22.223,13.595,26.495,26.099l5.958,17.436 c1.198,3.508,4.495,5.864,8.2,5.864h52.951c3.707,0,7.002-2.357,8.2-5.864l5.958-17.436 c4.272-12.502,13.929-22.015,26.495-26.097c12.566-4.083,25.97-2.064,36.776,5.54l15.068,10.604 c3.031,2.133,7.082,2.103,10.081-0.075l42.838-31.124c2.998-2.178,4.28-6.022,3.188-9.564l-5.43-17.608 c-3.893-12.627-1.671-25.999,6.095-36.688c7.767-10.689,19.798-16.933,33.008-17.133l18.424-0.279 c3.706-0.055,6.965-2.462,8.111-5.986l16.363-50.359C508.797,306.405,507.575,302.542,504.61,300.318z"/> <path d="M255.988,386.076c0.38,0,0.763-0.001,1.143-0.005c70.499-0.601,128.34-58.444,128.941-128.941 c0.298-35.177-13.23-68.244-38.095-93.109c-24.596-24.595-57.214-38.098-91.965-38.098c-0.379,0-0.763,0.001-1.143,0.005 c-70.499,0.601-128.34,58.444-128.941,128.941c-0.298,35.177,13.23,68.244,38.095,93.109 C188.619,372.574,221.237,386.077,255.988,386.076z M255.018,143.26c30.463-0.289,59.153,11.467,80.704,33.018 c21.552,21.551,33.277,50.212,33.019,80.705c-0.52,61.102-50.654,111.237-111.757,111.758 c-30.495,0.232-59.153-11.467-80.705-33.018s-33.278-50.213-33.019-80.705C143.781,193.916,193.915,143.781,255.018,143.26z"/> </g> </g> </g> </g>
</svg>