<?xml version="1.0" encoding="UTF-8"?>
<svg xmlns="http://www.w3.org/2000/svg" xmlns:xlink="http://www.w3.org/1999/xlink" width="25px" height="25px" viewBox="0 0 25 25" version="1.1">
<g id="surface1">
<path style="fill:none;stroke-width:2;stroke-linecap:round;stroke-linejoin:round;stroke:rgb(0%,0%,0%);stroke-opacity:1;stroke-miterlimit:4;" d="M 15 7 C 15 8.1 14.1 9 13 9 C 11.9 9 11 8.1 11 7 C 11 5.9 11.9 5 13 5 C 14.1 5 15 5.9 15 7 Z M 15 7 " transform="matrix(0.390625,0,0,0.390625,0,0)"/>
<path style=" stroke:none;fill-rule:nonzero;fill:rgb(0%,0%,0%);fill-opacity:1;" d="M 10.402344 2.148438 C 10.402344 2.394531 10.207031 2.589844 9.960938 2.589844 C 9.714844 2.589844 9.519531 2.394531 9.519531 2.148438 C 9.519531 1.902344 9.714844 1.707031 9.960938 1.707031 C 10.207031 1.707031 10.402344 1.902344 10.402344 2.148438 Z M 10.402344 2.148438 "/>
<path style="fill:none;stroke-width:2;stroke-linecap:round;stroke-linejoin:round;stroke:rgb(0%,0%,0%);stroke-opacity:1;stroke-miterlimit:4;" d="M 44 41.68 L 44 24.48 " transform="matrix(0.390625,0,0,0.390625,0,0)"/>
<path style="fill:none;stroke-width:2;stroke-linecap:round;stroke-linejoin:round;stroke:rgb(0%,0%,0%);stroke-opacity:1;stroke-miterlimit:4;" d="M 12 24.38 L 12 42.92 " transform="matrix(0.390625,0,0,0.390625,0,0)"/>
<path style="fill:none;stroke-width:2;stroke-linecap:round;stroke-linejoin:round;stroke:rgb(0%,0%,0%);stroke-opacity:1;stroke-miterlimit:4;" d="M 16 38 C 18.21 38 20 39.79 20 42 L 20 61 L 16.49 61 C 14.01 61 12 58.99 12 56.51 L 12 42 C 12 39.79 13.79 38 16 38 Z M 16 38 " transform="matrix(0.390625,0,0,0.390625,0,0)"/>
<path style="fill:none;stroke-width:2;stroke-linecap:round;stroke-linejoin:round;stroke:rgb(0%,0%,0%);stroke-opacity:1;stroke-miterlimit:4;" d="M 20 42 C 20 39.79 21.79 38 24 38 C 26.21 38 28 39.79 28 42 " transform="matrix(0.390625,0,0,0.390625,0,0)"/>
<path style="fill:none;stroke-width:2;stroke-linecap:round;stroke-linejoin:round;stroke:rgb(0%,0%,0%);stroke-opacity:1;stroke-miterlimit:4;" d="M 20 61 L 55 61 " transform="matrix(0.390625,0,0,0.390625,0,0)"/>
<path style="fill:none;stroke-width:2;stroke-linecap:round;stroke-linejoin:round;stroke:rgb(0%,0%,0%);stroke-opacity:1;stroke-miterlimit:4;" d="M 36 42 C 36 39.79 34.21 38 32 38 C 29.79 38 28 39.79 28 42 L 28 61 " transform="matrix(0.390625,0,0,0.390625,0,0)"/>
<path style="fill:none;stroke-width:2;stroke-linecap:round;stroke-linejoin:round;stroke:rgb(0%,0%,0%);stroke-opacity:1;stroke-miterlimit:4;" d="M 40 38 C 42.21 38 44 39.79 44 42 L 44 56.51 C 44 58.99 41.99 61 39.51 61 L 36 61 L 36 42 C 36 39.79 37.79 38 40 38 Z M 40 38 " transform="matrix(0.390625,0,0,0.390625,0,0)"/>
<path style="fill:none;stroke-width:2;stroke-linecap:round;stroke-linejoin:round;stroke:rgb(0%,0%,0%);stroke-opacity:1;stroke-miterlimit:4;" d="M 32 45 L 32 53 " transform="matrix(0.390625,0,0,0.390625,0,0)"/>
<path style="fill:none;stroke-width:2;stroke-linecap:round;stroke-linejoin:round;stroke:rgb(0%,0%,0%);stroke-opacity:1;stroke-miterlimit:4;" d="M 24 42 L 24 48 " transform="matrix(0.390625,0,0,0.390625,0,0)"/>
<path style="fill:none;stroke-width:2;stroke-linecap:round;stroke-linejoin:round;stroke:rgb(0%,0%,0%);stroke-opacity:1;stroke-miterlimit:4;" d="M 24 53 L 24 54 " transform="matrix(0.390625,0,0,0.390625,0,0)"/>
<path style="fill:none;stroke-width:2;stroke-linecap:round;stroke-linejoin:round;stroke:rgb(0%,0%,0%);stroke-opacity:1;stroke-miterlimit:4;" d="M 40 56 L 40 48 " transform="matrix(0.390625,0,0,0.390625,0,0)"/>
<path style="fill:none;stroke-width:2;stroke-linecap:round;stroke-linejoin:round;stroke:rgb(0%,0%,0%);stroke-opacity:1;stroke-miterlimit:4;" d="M 40 45 L 40 44 " transform="matrix(0.390625,0,0,0.390625,0,0)"/>
<path style="fill:none;stroke-width:2;stroke-linecap:round;stroke-linejoin:round;stroke:rgb(0%,0%,0%);stroke-opacity:1;stroke-miterlimit:4;" d="M 17 49 L 17 48 " transform="matrix(0.390625,0,0,0.390625,0,0)"/>
<path style="fill:none;stroke-width:2;stroke-linecap:round;stroke-linejoin:round;stroke:rgb(0%,0%,0%);stroke-opacity:1;stroke-miterlimit:4;" d="M 15 57 L 15 54 " transform="matrix(0.390625,0,0,0.390625,0,0)"/>
<path style="fill:none;stroke-width:2;stroke-linecap:round;stroke-linejoin:round;stroke:rgb(0%,0%,0%);stroke-opacity:1;stroke-miterlimit:4;" d="M 44.36 19.16 C 45.14 17.95 45.21 16.4 44.53 15.12 C 43.85 13.84 42.54 13.03 41.09 13 C 39.64 12.98 38.29 13.73 37.56 14.98 C 34.75 13.31 31.16 13.82 28.92 16.2 C 28.56 13.96 26.74 12.25 24.48 12.03 C 22.23 11.81 20.11 13.14 19.33 15.27 C 18.11 15.45 17.08 16.27 16.63 17.41 C 15.98 16.86 15.15 16.55 14.3 16.55 C 12.63 16.52 11.17 17.7 10.86 19.34 C 10.62 19.25 10.36 19.2 10.1 19.2 C 8.97 19.17 8.03 20.06 8 21.19 C 8 22.74 9.26 24 10.81 24 L 20 24 L 20 26.5 C 20 27.33 20.67 28 21.5 28 C 22.33 28 23 27.33 23 26.5 L 23 24 L 31 24 L 31 29 C 31 30.66 32.34 32 34 32 C 35.66 32 37 30.66 37 29 L 37 24 L 43.5 24 C 44.71 24 45.75 23.13 45.96 21.94 C 46.17 20.75 45.5 19.58 44.36 19.16 Z M 44.36 19.16 " transform="matrix(0.390625,0,0,0.390625,0,0)"/>
<path style="fill:none;stroke-width:2;stroke-linecap:round;stroke-linejoin:round;stroke:rgb(0%,0%,0%);stroke-opacity:1;stroke-miterlimit:4;" d="M 44.37 41 L 47.6 41 C 49.48 41 51 39.48 51 37.6 L 51 32 L 44.37 32 " transform="matrix(0.390625,0,0,0.390625,0,0)"/>
<path style="fill:none;stroke-width:2;stroke-linecap:round;stroke-linejoin:round;stroke:rgb(0%,0%,0%);stroke-opacity:1;stroke-miterlimit:4;" d="M 44.37 28 L 53 28 C 54.1 28 55 28.9 55 30 L 55 37.6 C 54.99 41.68 51.68 44.99 47.6 45 L 44.37 45 " transform="matrix(0.390625,0,0,0.390625,0,0)"/>
<path style="fill:none;stroke-width:2;stroke-linecap:round;stroke-linejoin:round;stroke:rgb(0%,0%,0%);stroke-opacity:1;stroke-miterlimit:4;" d="M 37 19 C 37 20.1 36.1 21 35 21 C 33.9 21 33 20.1 33 19 C 33 17.9 33.9 17 35 17 C 36.1 17 37 17.9 37 19 Z M 37 19 " transform="matrix(0.390625,0,0,0.390625,0,0)"/>
<path style="fill:none;stroke-width:2;stroke-linecap:round;stroke-linejoin:round;stroke:rgb(0%,0%,0%);stroke-opacity:1;stroke-miterlimit:4;" d="M 37 7 C 37 8.1 36.1 9 35 9 C 33.9 9 33 8.1 33 7 C 33 5.9 33.9 5 35 5 C 36.1 5 37 5.9 37 7 Z M 37 7 " transform="matrix(0.390625,0,0,0.390625,0,0)"/>
<path style=" stroke:none;fill-rule:nonzero;fill:rgb(0%,0%,0%);fill-opacity:1;" d="M 9.621094 7.617188 C 9.621094 7.863281 9.425781 8.058594 9.179688 8.058594 C 8.933594 8.058594 8.738281 7.863281 8.738281 7.617188 C 8.738281 7.371094 8.933594 7.175781 9.179688 7.175781 C 9.425781 7.175781 9.621094 7.371094 9.621094 7.617188 Z M 9.621094 7.617188 "/>
<path style=" stroke:none;fill-rule:nonzero;fill:rgb(0%,0%,0%);fill-opacity:1;" d="M 18.214844 1.757812 C 18.214844 2.003906 18.019531 2.199219 17.773438 2.199219 C 17.527344 2.199219 17.332031 2.003906 17.332031 1.757812 C 17.332031 1.511719 17.527344 1.316406 17.773438 1.316406 C 18.019531 1.316406 18.214844 1.511719 18.214844 1.757812 Z M 18.214844 1.757812 "/>
<path style="fill:none;stroke-width:2;stroke-linecap:butt;stroke-linejoin:round;stroke:rgb(0%,0%,0%);stroke-opacity:1;stroke-miterlimit:4;" d="M 12 28 L 31 28 " transform="matrix(0.390625,0,0,0.390625,0,0)"/>
<path style="fill:none;stroke-width:2;stroke-linecap:butt;stroke-linejoin:round;stroke:rgb(0%,0%,0%);stroke-opacity:1;stroke-miterlimit:4;" d="M 37 28 L 44 28 " transform="matrix(0.390625,0,0,0.390625,0,0)"/>
</g>
</svg>
