<?xml version="1.0" encoding="iso-8859-1"?>
<!-- Uploaded to: SVG Repo, www.svgrepo.com, Generator: SVG Repo Mixer Tools -->
<svg fill="#000000" height="800px" width="800px" version="1.1" id="Layer_1" xmlns="http://www.w3.org/2000/svg" xmlns:xlink="http://www.w3.org/1999/xlink" 
	 viewBox="0 0 490.667 490.667" xml:space="preserve">
<g>
	<g>
		<g>
			<path d="M362.411,137.237c-0.085-0.533-0.128-1.045-0.277-1.557c-5.461-26.773-82.005-28.992-106.133-28.992
				c-28.139,0-54.336,2.645-73.749,7.467c-5.717,1.408-9.216,7.189-7.787,12.907c1.408,5.717,7.296,9.152,12.907,7.765
				C204.907,130.475,229.909,128,256,128c42.133,0,70.101,5.973,81.237,10.667c-11.136,4.693-39.104,10.667-81.237,10.667
				c-12.651,0-24.896-0.555-36.352-1.621c-5.931-0.619-11.051,3.755-11.605,9.621c-0.555,5.867,3.755,11.072,9.621,11.605
				c12.117,1.152,25.024,1.728,38.336,1.728c16.043,0,55.275-0.981,81.429-9.493l-17.813,106.901
				c-0.96,5.803,2.965,11.307,8.768,12.267c0.597,0.107,1.173,0.149,1.771,0.149c5.12,0,9.643-3.691,10.517-8.917l21.845-131.136
				c0.043-0.256-0.043-0.512-0.021-0.768c0.021-0.341,0.171-0.64,0.171-0.981C362.667,138.176,362.453,137.728,362.411,137.237z"/>
			<path d="M245.333,0C110.059,0,0,110.059,0,245.333s110.059,245.333,245.333,245.333s245.333-110.059,245.333-245.333
				S380.608,0,245.333,0z M245.312,469.333c-123.499,0-223.979-100.48-223.979-224c0-57.92,22.293-110.613,58.496-150.421
				l74.475,74.475l27.157,163.029l10.667,64c0.853,5.141,5.312,8.917,10.517,8.917h106.667c5.227,0,9.664-3.776,10.517-8.917
				l8.789-52.693l67.115,67.115C355.925,447.04,303.232,469.333,245.312,469.333z M180.245,195.349L304.896,320H201.024
				L180.245,195.349z M410.837,395.755l-81.771-81.771L171.819,156.736L94.933,79.851c39.808-36.203,92.501-58.496,150.421-58.496
				c123.499-0.021,223.979,100.459,223.979,223.979C469.333,303.253,447.04,355.947,410.837,395.755z"/>
		</g>
	</g>
</g>
</svg>