<?xml version="1.0" encoding="UTF-8"?>
<svg xmlns="http://www.w3.org/2000/svg" xmlns:xlink="http://www.w3.org/1999/xlink" width="32px" height="32px" viewBox="0 0 32 32" version="1.1">
<g id="surface1">
<path style="fill-rule:nonzero;fill:rgb(0%,0%,0%);fill-opacity:1;stroke-width:6.4;stroke-linecap:butt;stroke-linejoin:miter;stroke:rgb(0%,0%,0%);stroke-opacity:1;stroke-miterlimit:4;" d="M 50.96875 37.3125 C 49.46875 35.6875 46.9375 35.5625 45.3125 37.03125 C 43.6875 38.53125 43.5625 41.0625 45.03125 42.6875 L 83.625 85.15625 C 72.21875 82.75 52.625 82.375 32.09375 98.9375 C 29.4375 101.0625 27.8125 104.25 27.625 107.65625 C 27.4375 111.0625 28.71875 114.375 31.125 116.78125 L 82.34375 168 L 45.1875 205.15625 C 44.15625 206.1875 43.75 207.65625 44.125 209.03125 C 44.5 210.40625 45.59375 211.5 46.96875 211.875 C 48.34375 212.25 49.8125 211.84375 50.84375 210.84375 L 88 173.65625 L 139.03125 224.6875 C 141.28125 226.9375 144.3125 228.1875 147.5 228.1875 C 147.78125 228.1875 148.0625 228.1875 148.34375 228.15625 C 151.8125 227.9375 155 226.1875 157.09375 223.4375 C 163.40625 215 172.5 199.9375 172.46875 182.875 L 205.03125 218.6875 C 206 219.75 207.46875 220.21875 208.84375 219.90625 C 210.25 219.625 211.375 218.59375 211.8125 217.21875 C 212.25 215.875 211.9375 214.375 210.96875 213.3125 Z M 150.6875 218.625 C 150 219.53125 148.9375 220.125 147.78125 220.1875 C 146.625 220.28125 145.5 219.84375 144.6875 219.03125 L 36.78125 111.125 C 35.96875 110.3125 35.5625 109.21875 35.625 108.0625 C 35.6875 106.9375 36.21875 105.875 37.125 105.15625 C 64.28125 83.25 89.1875 95.0625 90.21875 95.5625 C 91.1875 96.0625 92.28125 96.125 93.3125 95.78125 L 163.03125 172.46875 C 168.375 191.21875 157.65625 209.375 150.6875 218.625 Z M 232.6875 96 C 232.6875 99.1875 231.4375 102.25 229.15625 104.5 L 187.78125 145.875 C 186.75 146.90625 185.28125 147.3125 183.90625 146.9375 C 182.53125 146.5625 181.4375 145.46875 181.0625 144.09375 C 180.6875 142.71875 181.09375 141.25 182.125 140.21875 L 223.5 98.84375 C 225.0625 97.28125 225.0625 94.71875 223.5 93.15625 L 162.84375 32.5 C 161.25 30.9375 158.75 30.9375 157.15625 32.5 L 119.1875 70.46875 C 117.625 72.03125 115.09375 72.03125 113.53125 70.46875 C 111.96875 68.90625 111.96875 66.375 113.53125 64.8125 L 151.5 26.84375 C 156.21875 22.15625 163.78125 22.15625 168.5 26.8125 L 229.15625 87.5 C 231.4375 89.75 232.6875 92.8125 232.6875 96 Z M 232.6875 96 " transform="matrix(0.125,0,0,0.125,0,0)"/>
</g>
</svg>
